<svg width="30" height="23" viewBox="0 0 30 23" fill="none" xmlns="http://www.w3.org/2000/svg">
<path d="M5.23156 15.4417C5.00803 15.6696 4.70644 15.8021 4.39624 15.8087L1.28896 15.8743C1.20686 15.876 1.12565 15.8657 1.04389 15.8624C0.9758 15.8597 0.906985 15.8658 0.839023 15.8806C0.730239 15.9043 0.625814 15.9501 0.531837 16.0152C0.43786 16.0803 0.356211 16.1634 0.291651 16.2597C0.228406 16.354 0.1828 16.4592 0.157365 16.5692C0.156446 16.5732 0.152877 16.5762 0.148839 16.5762C0.144209 16.5763 0.140314 16.5802 0.140139 16.5848L1.00452e-05 20.2941C-0.000278398 20.3018 0.00568045 20.3078 0.0133195 20.3077C0.0197539 20.3075 0.0251601 20.3118 0.0264564 20.3181C0.0599503 20.4786 0.138453 20.6228 0.252468 20.733C0.365514 20.8423 0.508495 20.9132 0.664126 20.9376C0.672408 20.9388 0.678302 20.9459 0.677982 20.9544C0.677624 20.9639 0.685034 20.9714 0.694533 20.9712L6.21895 20.8546C6.22471 20.8545 6.22954 20.8497 6.22976 20.844C6.22998 20.8383 6.23477 20.8335 6.24048 20.8333C6.74699 20.8127 7.19804 20.5332 7.47947 20.1221C7.54321 20.029 7.60869 19.9363 7.68789 19.8556L10.3452 17.1457C10.787 16.6952 10.8134 15.9969 10.405 15.5643L8.59826 13.6505C8.16705 13.1937 7.42047 13.2095 6.95401 13.6851L5.23156 15.4417Z" fill="url(#paint0_linear_112_207)"/>
<path d="M29.8608 4.61229L23.9516 0.242408C23.8915 0.197279 23.8195 0.171234 23.7436 0.167207C23.6677 0.163179 23.591 0.181329 23.522 0.219612C23.4523 0.257998 23.393 0.315079 23.3507 0.384532C23.3085 0.453985 23.2849 0.533099 23.2826 0.613111L23.2542 1.3717C23.2307 2.00165 22.7005 2.52323 22.0702 2.53653L18.3447 2.61516C18.3421 2.61521 18.34 2.61728 18.3399 2.61979C18.3399 2.62219 18.3379 2.62422 18.3355 2.62441C18.0019 2.6511 17.6799 2.79245 17.4206 3.02598C17.4186 3.02781 17.4155 3.02778 17.4138 3.0259C17.4119 3.02394 17.4087 3.02401 17.4067 3.02605L14.6067 5.88098C14.1648 6.33146 14.1384 7.02988 14.5468 7.46246L16.3538 9.37627C16.785 9.833 17.5315 9.81725 17.998 9.34157L19.2854 8.02872C19.5089 7.80077 19.8105 7.66827 20.1207 7.66172L21.8807 7.62457C22.5107 7.61128 23.0022 8.11083 22.9786 8.74048L22.945 9.63756C22.9388 9.80073 23.0216 9.94914 23.1589 10.0215C23.2962 10.0938 23.4655 10.0771 23.5978 9.97867L29.8356 5.32328C29.9491 5.2392 29.9942 5.10605 29.9995 4.96527C30.0046 4.82382 29.9688 4.6917 29.8608 4.61229Z" fill="url(#paint1_linear_112_207)"/>
<path d="M29.371 16.944L23.4753 12.5451C23.4142 12.4996 23.3411 12.4734 23.2642 12.4691C23.1873 12.4649 23.1095 12.4828 23.0393 12.5209C22.9691 12.5591 22.9093 12.616 22.8664 12.6854C22.8234 12.7547 22.7991 12.8339 22.796 12.9143L22.7618 13.8114C22.7378 14.441 22.2078 14.9621 21.5778 14.9754L19.8174 15.0126C19.5072 15.0191 19.2152 14.8992 19.0085 14.6803L8.28701 3.32453C8.2138 3.24698 8.15522 3.157 8.0984 3.06642C7.84762 2.66659 7.417 2.40595 6.91153 2.40673C6.90584 2.40674 6.90139 2.4022 6.90161 2.3965C6.90183 2.39075 6.89734 2.38619 6.89159 2.38631L1.36716 2.5029C1.35767 2.5031 1.34967 2.51096 1.34932 2.52045C1.349 2.52892 1.34256 2.53623 1.33417 2.53788C1.17645 2.56881 1.02787 2.64594 0.906384 2.76014C0.783891 2.87528 0.694374 3.023 0.648674 3.18516C0.646882 3.19152 0.641065 3.19614 0.634546 3.19628C0.626806 3.19644 0.620295 3.20285 0.620003 3.21058L0.479894 6.91936C0.479712 6.92419 0.483476 6.92802 0.488302 6.92791C0.492513 6.92783 0.496007 6.93075 0.496653 6.93487C0.513787 7.04394 0.551472 7.14725 0.607622 7.23902C0.664991 7.33277 0.740487 7.41259 0.829703 7.47381C0.918919 7.53504 1.02007 7.57644 1.12725 7.59561C1.19413 7.60757 1.26253 7.61072 1.33087 7.60512C1.41316 7.59836 1.49544 7.58458 1.5777 7.58284L4.68442 7.51727C4.99461 7.51073 5.28667 7.63071 5.49332 7.84958L16.7489 19.771C16.7507 19.7729 16.754 19.7729 16.756 19.7708C16.7579 19.7689 16.7609 19.7687 16.7628 19.7705C17.005 19.9933 17.317 20.1213 17.6491 20.134C17.6515 20.1341 17.6533 20.1361 17.6532 20.1385C17.6531 20.141 17.6551 20.143 17.6576 20.1429L21.3832 20.0643C22.0134 20.051 22.505 20.551 22.481 21.1809L22.4521 21.9395C22.4459 22.1037 22.5251 22.2526 22.6621 22.3236C22.7281 22.3592 22.8036 22.3743 22.88 22.3672C22.9564 22.36 23.0305 22.3308 23.0941 22.2829L29.3431 17.6564C29.4573 17.572 29.5031 17.4392 29.5084 17.2974L29.5085 17.296C29.5135 17.1552 29.4783 17.0235 29.371 16.944Z" fill="url(#paint2_linear_112_207)"/>
<defs>
<linearGradient id="paint0_linear_112_207" x1="15" y1="0.166656" x2="15" y2="22.3689" gradientUnits="userSpaceOnUse">
<stop stop-color="#5C5C5C"/>
<stop offset="1"/>
</linearGradient>
<linearGradient id="paint1_linear_112_207" x1="15" y1="0.166656" x2="15" y2="22.3689" gradientUnits="userSpaceOnUse">
<stop stop-color="#5C5C5C"/>
<stop offset="1"/>
</linearGradient>
<linearGradient id="paint2_linear_112_207" x1="15" y1="0.166656" x2="15" y2="22.3689" gradientUnits="userSpaceOnUse">
<stop stop-color="#5C5C5C"/>
<stop offset="1"/>
</linearGradient>
</defs>
</svg>
