<svg width="31" height="25" viewBox="0 0 31 25" fill="none" xmlns="http://www.w3.org/2000/svg">
<path fill-rule="evenodd" clip-rule="evenodd" d="M14.1006 0.577067C12.5719 0.833352 11.2164 1.37823 10.023 2.21625C9.35363 2.68627 8.29677 3.73671 7.76919 4.45641C7.28277 5.11988 6.69503 6.24642 6.42564 7.03157C6.26938 7.48688 6.21009 7.58271 6.04907 7.64025C5.63603 7.78785 4.76568 8.25491 4.26968 8.59514C3.60682 9.04982 2.42751 10.2556 1.99012 10.9258C-0.453339 14.6703 0.160226 19.537 3.44889 22.4965C4.32272 23.2829 5.27 23.8344 6.43174 24.2328C7.75604 24.6871 7.61601 24.681 16.3436 24.6588L24.2024 24.6387L24.8395 24.4569C27.0265 23.8326 28.7287 22.4481 29.6918 20.5102C30.325 19.2359 30.5085 18.4172 30.4997 16.9062C30.4939 15.9194 30.4706 15.6854 30.3205 15.1071C29.6597 12.5612 27.8744 10.553 25.5239 9.71178C25.2775 9.62358 25.1614 9.54266 25.1445 9.44725C25.1311 9.37162 25.0707 9.0004 25.0103 8.62229C24.7011 6.68537 23.7732 4.87707 22.3274 3.39428C20.9486 1.98004 19.3574 1.09273 17.4475 0.672899C16.6204 0.491065 14.9062 0.44198 14.1006 0.577067ZM14.8671 7.19931C14.3824 7.37689 14.0119 7.65703 13.773 8.02661C13.3939 8.61335 13.3716 8.79773 13.3716 11.3449V13.6644L12.1087 13.687C10.8561 13.7093 10.844 13.711 10.6093 13.8947C10.1691 14.2391 10.0409 14.7658 10.2814 15.2419C10.3523 15.3821 11.4463 16.5539 12.7124 17.8458C15.2013 20.3852 15.1651 20.3568 15.7691 20.2425C15.9872 20.2011 16.3261 19.8832 18.3228 17.8458C19.589 16.5539 20.683 15.3821 20.7539 15.2419C20.9944 14.7658 20.8662 14.2391 20.426 13.8947C20.1914 13.711 20.179 13.7093 18.9296 13.687L17.67 13.6645L17.6501 11.2122L17.6301 8.75978L17.4544 8.37577C16.9937 7.36864 15.8386 6.84348 14.8671 7.19931Z" fill="url(#paint0_linear_112_245)"/>
<defs>
<linearGradient id="paint0_linear_112_245" x1="15.5" y1="0.5" x2="15.5" y2="24.6667" gradientUnits="userSpaceOnUse">
<stop stop-color="#5C5C5C"/>
<stop offset="1"/>
</linearGradient>
</defs>
</svg>
