<svg width="31" height="30" viewBox="0 0 31 30" fill="none" xmlns="http://www.w3.org/2000/svg">
<path fill-rule="evenodd" clip-rule="evenodd" d="M22.7487 1.01762C22.75 0.45432 23.2077 -0.00128621 23.771 2.72814e-06L29.4824 0.0130633C30.0457 0.0143522 30.5013 0.472045 30.5 1.03535L30.4869 6.74671C30.4856 7.31002 30.028 7.76562 29.4646 7.76433C28.9013 7.76304 28.4457 7.30535 28.447 6.74205L28.4489 5.90728C28.451 5.01638 27.3749 4.56775 26.7435 5.19628L23.4392 8.48547C23.0478 8.8751 22.4146 8.87365 22.025 8.48224L21.9968 8.45395C21.6072 8.06253 21.6086 7.42937 22.0001 7.03974L25.3043 3.75054C25.9357 3.12202 25.492 2.04386 24.6011 2.04182L23.7664 2.03991C23.2031 2.03862 22.7475 1.58093 22.7487 1.01762ZM1.51995 2.29173e-06L7.23131 1.97016e-06C7.79462 1.97016e-06 8.25127 0.456652 8.25127 1.01996C8.25127 1.58327 7.79462 2.03992 7.23131 2.03992L6.39655 2.03992C5.50564 2.03992 5.05948 3.11706 5.68944 3.74702L8.98618 7.04377C9.37671 7.4343 9.37671 8.06746 8.98618 8.45798L8.95796 8.4862C8.56744 8.87673 7.93427 8.87673 7.54375 8.48621L4.24702 5.18946C3.61705 4.5595 2.53991 5.00567 2.53991 5.89657V6.73133C2.53991 7.29464 2.08326 7.75129 1.51995 7.75129C0.956649 7.75129 0.5 7.29464 0.5 6.73133L0.5 1.01996C0.5 0.456652 0.956649 2.24579e-06 1.51995 2.29173e-06ZM22.0465 21.4883C22.438 21.0988 23.0711 21.1004 23.4607 21.4919L26.7491 24.7969C27.3775 25.4284 28.4558 24.9849 28.458 24.094L28.4601 23.2593C28.4615 22.696 28.9193 22.2405 29.4826 22.2419C30.0459 22.2433 30.5014 22.7011 30.5 23.2644L30.4857 28.9757C30.4843 29.539 30.0265 29.9945 29.4632 29.9931L23.7518 29.9788C23.1885 29.9774 22.733 29.5196 22.7344 28.9563C22.7359 28.393 23.1936 27.9375 23.757 27.9389L24.5917 27.941C25.4826 27.9432 25.9315 26.8672 25.3031 26.2357L22.0146 22.9307C21.6251 22.5392 21.6267 21.906 22.0182 21.5165L22.0465 21.4883ZM7.54375 21.5138C7.93427 21.1233 8.56744 21.1233 8.95796 21.5138L8.98619 21.542C9.37671 21.9325 9.37671 22.5657 8.98619 22.9562L5.68944 26.253C5.05948 26.8829 5.50565 27.9601 6.39655 27.9601H7.23131C7.79462 27.9601 8.25127 28.4167 8.25127 28.98C8.25127 29.5433 7.79462 30 7.23131 30L1.51995 30C0.95665 30 0.500001 29.5433 0.500001 28.98L0.500001 23.2687C0.5 22.7054 0.95665 22.2487 1.51995 22.2487C2.08326 22.2487 2.53991 22.7054 2.53991 23.2687L2.53991 24.1034C2.53991 24.9943 3.61705 25.4405 4.24702 24.8105L7.54375 21.5138Z" fill="url(#paint0_linear_112_237)"/>
<defs>
<linearGradient id="paint0_linear_112_237" x1="15.5" y1="0" x2="15.5" y2="30" gradientUnits="userSpaceOnUse">
<stop stop-color="#5C5C5C"/>
<stop offset="1"/>
</linearGradient>
</defs>
</svg>
