<svg width="14" height="14" viewBox="0 0 14 14" fill="none" xmlns="http://www.w3.org/2000/svg">
<g clip-path="url(#clip0_138_145)">
<path fill-rule="evenodd" clip-rule="evenodd" d="M11.7291 12.0962C11.553 12.3013 11.2674 12.3013 11.0913 12.0962L6.71408 7L11.0913 1.90377C11.2674 1.69875 11.553 1.69875 11.7291 1.90377C11.9052 2.1088 11.9052 2.44121 11.7291 2.64623L7.98951 7L11.7291 11.3538C11.9052 11.5588 11.9052 11.8912 11.7291 12.0962Z" fill="#1A1A1A"/>
<path fill-rule="evenodd" clip-rule="evenodd" d="M8.82556 13.795C8.59076 14.0683 8.21007 14.0683 7.97527 13.795L2.13892 7L7.97527 0.205027C8.21007 -0.0683393 8.59076 -0.0683393 8.82556 0.205027C9.06036 0.478395 9.06036 0.92161 8.82556 1.19498L3.83949 7L8.82556 12.805C9.06036 13.0784 9.06036 13.5216 8.82556 13.795Z" fill="#1A1A1A"/>
</g>
<defs>
<clipPath id="clip0_138_145">
<rect width="14" height="14" fill="white" transform="matrix(-1 0 0 -1 14 14)"/>
</clipPath>
</defs>
</svg>
