<svg width="40" height="41" viewBox="0 0 40 41" fill="none" xmlns="http://www.w3.org/2000/svg">
<g clip-path="url(#clip0_1_16520)">
<path d="M5.83331 10.0937C5.83331 9.25956 6.47407 8.58333 7.26449 8.58333H32.7355C33.5259 8.58333 34.1666 9.25956 34.1666 10.0937V11.3021C34.1666 12.1363 33.5259 12.8125 32.7355 12.8125H7.26449C6.47407 12.8125 5.83331 12.1363 5.83331 11.3021V10.0937Z" fill="url(#paint0_linear_1_16520)"/>
<path d="M5.83331 20.0625C5.83331 19.2283 6.47407 18.5521 7.26449 18.5521H32.7355C33.5259 18.5521 34.1666 19.2283 34.1666 20.0625V21.2708C34.1666 22.105 33.5259 22.7812 32.7355 22.7812H7.26449C6.47407 22.7812 5.83331 22.105 5.83331 21.2708V20.0625Z" fill="url(#paint1_linear_1_16520)"/>
<path d="M5.83331 30.0312C5.83331 29.1971 6.47407 28.5208 7.26449 28.5208H23.3255H32.7355C33.5259 28.5208 34.1666 29.1971 34.1666 30.0312V31.2396C34.1666 32.0738 33.5259 32.75 32.7355 32.75H7.26449C6.47407 32.75 5.83331 32.0738 5.83331 31.2396V30.0312Z" fill="url(#paint2_linear_1_16520)"/>
</g>
<defs>
<linearGradient id="paint0_linear_1_16520" x1="20" y1="8.58333" x2="20" y2="32.75" gradientUnits="userSpaceOnUse">
<stop stop-color="#5C5C5C"/>
<stop offset="1"/>
</linearGradient>
<linearGradient id="paint1_linear_1_16520" x1="20" y1="8.58333" x2="20" y2="32.75" gradientUnits="userSpaceOnUse">
<stop stop-color="#5C5C5C"/>
<stop offset="1"/>
</linearGradient>
<linearGradient id="paint2_linear_1_16520" x1="20" y1="8.58333" x2="20" y2="32.75" gradientUnits="userSpaceOnUse">
<stop stop-color="#5C5C5C"/>
<stop offset="1"/>
</linearGradient>
<clipPath id="clip0_1_16520">
<rect width="30" height="30" fill="white" transform="translate(5 5.25)"/>
</clipPath>
</defs>
</svg>
