<svg width="29" height="30" viewBox="0 0 29 30" fill="none" xmlns="http://www.w3.org/2000/svg">
<path d="M19.2812 20.0659L28.186 11.389C28.5064 11.0767 28.6666 10.707 28.6666 10.2797C28.6666 9.85244 28.5064 9.48269 28.186 9.17045L19.2812 0.493521C18.7753 -0.0159198 18.1934 -0.130955 17.5357 0.148416C16.8611 0.427786 16.5238 0.912577 16.5238 1.60279V5.54684C14.5168 5.54684 12.6954 5.70707 11.0595 6.02753C9.42359 6.34798 8.0533 6.76704 6.94864 7.28469C5.84398 7.80235 4.88267 8.45148 4.06471 9.23207C3.24676 10.0127 2.60167 10.7974 2.12944 11.5862C1.65722 12.375 1.28197 13.2706 1.0037 14.2731C0.725426 15.2755 0.544126 16.1917 0.459801 17.0216C0.375476 17.8515 0.333313 18.7594 0.333313 19.7455C0.333313 22.7199 1.74155 26.0395 4.55802 29.7042C4.74353 29.9014 4.95435 30 5.19046 30C5.30851 30 5.41813 29.9753 5.51933 29.9261C5.89036 29.7781 6.05057 29.507 5.99998 29.1126C5.25792 23.2951 5.78073 19.4086 7.56843 17.453C8.34423 16.5984 9.44046 15.9781 10.8571 15.5919C12.2738 15.2057 14.1627 15.0126 16.5238 15.0126V18.9566C16.5238 19.6468 16.8611 20.1316 17.5357 20.411C17.7381 20.4932 17.9405 20.5343 18.1428 20.5343C18.5813 20.5343 18.9608 20.3781 19.2812 20.0659Z" fill="url(#paint0_linear_112_2113)"/>
<defs>
<linearGradient id="paint0_linear_112_2113" x1="14.5" y1="0" x2="14.5" y2="30" gradientUnits="userSpaceOnUse">
<stop stop-color="#5C5C5C"/>
<stop offset="1"/>
</linearGradient>
</defs>
</svg>
