<svg width="30" height="31" viewBox="0 0 30 31" fill="none" xmlns="http://www.w3.org/2000/svg">
<path d="M7.81875 9.17345C8.12422 9.47892 8.61875 9.47892 8.92341 9.17345C9.2281 8.86797 9.2281 8.37345 8.92341 8.06879L7.26642 6.41095C6.96095 6.10547 6.46642 6.10547 6.16172 6.41095C5.85625 6.71642 5.85625 7.21095 6.16172 7.51565L7.81875 9.17345ZM8.28905 20.8672L6.64763 22.5086C6.3453 22.8109 6.3453 23.3008 6.64763 23.6031C6.94996 23.9055 7.43983 23.9055 7.74216 23.6031L9.38358 21.9617C9.68591 21.6594 9.68591 21.1695 9.38358 20.8672C9.08125 20.5649 8.59142 20.5648 8.28905 20.8672ZM15 6.65625C15.4312 6.65625 15.7812 6.30625 15.7812 5.875V3.53125C15.7812 3.1 15.4312 2.75 15 2.75C14.5687 2.75 14.2188 3.1 14.2188 3.53125V5.875C14.2188 6.30625 14.5687 6.65625 15 6.65625ZM22.5164 8.8281L24.1578 7.18668C24.4602 6.88436 24.4602 6.39449 24.1578 6.09216C23.8555 5.78983 23.3656 5.78983 23.0633 6.09216L21.4219 7.73358C21.1195 8.03591 21.1195 8.52578 21.4219 8.8281C21.7242 9.13047 22.2141 9.13047 22.5164 8.8281ZM5.625 14.4688H3.28125C2.85 14.4688 2.5 14.8187 2.5 15.25C2.5 15.6812 2.85 16.0312 3.28125 16.0312H5.625C6.05625 16.0312 6.40625 15.6812 6.40625 15.25C6.40625 14.8187 6.05625 14.4688 5.625 14.4688ZM15 23.8438C14.5687 23.8438 14.2188 24.1938 14.2188 24.625V26.9688C14.2188 27.4 14.5687 27.75 15 27.75C15.4312 27.75 15.7812 27.4 15.7812 26.9688V24.625C15.7812 24.1938 15.4312 23.8438 15 23.8438ZM26.7188 14.4688H24.375C23.9438 14.4688 23.5938 14.8187 23.5938 15.25C23.5938 15.6812 23.9438 16.0312 24.375 16.0312H26.7188C27.15 16.0312 27.5 15.6812 27.5 15.25C27.5 14.8187 27.15 14.4688 26.7188 14.4688ZM22.1812 21.3266C21.8758 21.0211 21.3813 21.0211 21.0766 21.3266C20.7711 21.6321 20.7711 22.1266 21.0766 22.4312L22.7336 24.0883C23.0391 24.3938 23.5336 24.3938 23.8383 24.0883C24.143 23.7828 24.1438 23.2883 23.8383 22.9836L22.1812 21.3266ZM15 8.21405C11.1141 8.21405 7.96405 11.3641 7.96405 15.25C7.96405 19.1359 11.1141 22.2859 15 22.2859C18.8859 22.2859 22.0359 19.1359 22.0359 15.25C22.0359 11.3641 18.8859 8.21405 15 8.21405Z" fill="url(#paint0_linear_112_2315)"/>
<path fill-rule="evenodd" clip-rule="evenodd" d="M15 28.5833C22.3638 28.5833 28.3333 22.6138 28.3333 15.25C28.3333 7.8862 22.3638 1.91667 15 1.91667C7.6362 1.91667 1.66667 7.8862 1.66667 15.25C1.66667 22.6138 7.6362 28.5833 15 28.5833ZM15 30.25C23.2843 30.25 30 23.5343 30 15.25C30 6.96573 23.2843 0.25 15 0.25C6.71573 0.25 0 6.96573 0 15.25C0 23.5343 6.71573 30.25 15 30.25Z" fill="url(#paint1_linear_112_2315)"/>
<defs>
<linearGradient id="paint0_linear_112_2315" x1="15" y1="0.25" x2="15" y2="30.25" gradientUnits="userSpaceOnUse">
<stop stop-color="#F8E889"/>
<stop offset="1" stop-color="#E4B764"/>
</linearGradient>
<linearGradient id="paint1_linear_112_2315" x1="15" y1="0.25" x2="15" y2="30.25" gradientUnits="userSpaceOnUse">
<stop stop-color="#F8E889"/>
<stop offset="1" stop-color="#E4B764"/>
</linearGradient>
</defs>
</svg>
