<svg width="24" height="24" viewBox="0 0 24 24" fill="none" xmlns="http://www.w3.org/2000/svg">
<path d="M20.7071 5.98002C20.7066 5.97805 20.7057 5.97628 20.7053 5.9743C20.7011 5.95652 20.6955 5.93908 20.6886 5.92214L20.6867 5.91798C20.68 5.90266 20.6722 5.88785 20.6634 5.87365C20.6614 5.87033 20.6595 5.86694 20.6573 5.86369C20.649 5.85088 20.6399 5.83862 20.63 5.82699L20.6266 5.82346C20.6234 5.81986 20.62 5.8164 20.6166 5.81308C20.6079 5.80402 20.5987 5.79542 20.589 5.78732C20.5845 5.7835 20.5801 5.77955 20.5755 5.77595C20.564 5.76732 20.552 5.75943 20.5396 5.7523C20.5256 5.74432 20.5111 5.73729 20.4962 5.73127C20.4826 5.72568 20.4687 5.72096 20.4545 5.71715C20.4389 5.71273 20.423 5.70952 20.4069 5.70755C20.3923 5.70562 20.3776 5.70461 20.3628 5.70452H16.6843C16.7121 5.33082 16.8195 4.96739 16.9993 4.63863C17.138 4.40753 17.2795 4.30878 17.3634 4.31393C17.4649 4.32021 17.668 4.50932 17.7869 4.98854C17.8114 5.09738 17.8766 5.19274 17.9691 5.25512C18.0616 5.31751 18.1744 5.34221 18.2845 5.32419C18.3406 5.31323 18.3939 5.29105 18.4411 5.25897C18.4884 5.2269 18.5287 5.1856 18.5596 5.13756C18.5904 5.08951 18.6113 5.03571 18.6209 4.9794C18.6304 4.92309 18.6285 4.86543 18.6152 4.80988C18.4225 4.00518 17.9743 3.50343 17.4165 3.4687C16.9789 3.44047 16.5735 3.70165 16.273 4.20282C16.032 4.60454 15.8777 5.13607 15.8344 5.70438H11.2062C11.2341 5.33069 11.3415 4.96728 11.5213 4.63849C11.66 4.40739 11.8016 4.30863 11.8854 4.31379C11.9869 4.32007 12.19 4.50918 12.3089 4.9884C12.3334 5.09724 12.3986 5.1926 12.4911 5.25498C12.5836 5.31737 12.6964 5.34207 12.8065 5.32405C12.8626 5.31309 12.9159 5.29091 12.9631 5.25883C13.0104 5.22676 13.0507 5.18546 13.0816 5.13741C13.1124 5.08937 13.1333 5.03557 13.1429 4.97926C13.1524 4.92295 13.1505 4.86529 13.1372 4.80974C12.9444 4.00503 12.4963 3.50329 11.9385 3.46856C11.5009 3.44033 11.0955 3.7015 10.795 4.20268C10.554 4.6044 10.3997 5.13593 10.3563 5.70423H5.72824C5.75606 5.33054 5.86347 4.96712 6.04327 4.63835C6.18191 4.40725 6.32365 4.30849 6.40737 4.31365C6.51014 4.32007 6.71725 4.51398 6.83527 5.00682C6.84673 5.06237 6.86923 5.11505 6.90143 5.16173C6.93363 5.20842 6.97488 5.24816 7.02273 5.2786C7.07058 5.30905 7.12406 5.32957 7.17999 5.33895C7.23592 5.34834 7.29317 5.34639 7.34834 5.33323C7.4035 5.32007 7.45547 5.29597 7.50114 5.26235C7.54682 5.22873 7.58527 5.18627 7.61423 5.13751C7.64319 5.08875 7.66206 5.03466 7.66972 4.97847C7.67738 4.92227 7.67367 4.86511 7.65882 4.81038C7.46619 4.00567 7.01802 3.50386 6.46024 3.4692C6.02259 3.44096 5.61713 3.70214 5.31671 4.20332C5.07579 4.60503 4.92141 5.13656 4.87807 5.70487H2.79967C2.71503 5.70487 2.63321 5.73529 2.56912 5.79058C2.50503 5.84586 2.46295 5.92234 2.45054 6.00607L0.356755 20.1284C0.345705 20.2034 0.358976 20.2798 0.394615 20.3466C0.430255 20.4134 0.486384 20.4671 0.554755 20.4996C0.604277 20.5226 0.658359 20.534 0.712943 20.5331H18.269C18.3536 20.5331 18.4355 20.5027 18.4995 20.4474C18.5636 20.3922 18.6057 20.3157 18.6181 20.232L18.708 19.6259L19.8715 11.7777C19.8841 11.6825 19.9298 11.5947 20.0006 11.5299C20.0715 11.465 20.1629 11.4271 20.2588 11.4228C20.3157 11.4217 20.3722 11.4328 20.4244 11.4554C20.4766 11.4781 20.5233 11.5117 20.5614 11.554C20.5995 11.5962 20.628 11.6462 20.6451 11.7005C20.6621 11.7548 20.6673 11.8121 20.6603 11.8686L19.7736 18.9676C19.7662 19.0271 19.7715 19.0874 19.7892 19.1447C19.8068 19.2019 19.8365 19.2548 19.8762 19.2997C19.9158 19.3446 19.9646 19.3806 20.0192 19.4052C20.0738 19.4298 20.133 19.4426 20.193 19.4425H23.2821C23.3559 19.444 23.4284 19.4234 23.4904 19.3834C23.5497 19.3437 23.5956 19.2869 23.622 19.2207C23.6485 19.1544 23.6543 19.0817 23.6387 19.0121L20.7071 5.98002ZM7.28852 14.1953L6.95372 14.5301C6.96629 14.5734 6.96944 14.6188 6.96297 14.6634L6.62972 16.9108C6.61855 16.9862 6.58067 17.055 6.523 17.1047C6.46533 17.1545 6.3917 17.1819 6.31553 17.1819H3.75367C3.70802 17.1819 3.66291 17.172 3.62141 17.153C3.5799 17.134 3.54299 17.1063 3.51317 17.0717C3.48335 17.0371 3.46134 16.9966 3.44862 16.9527C3.4359 16.9089 3.43279 16.8628 3.43948 16.8176L3.80174 14.3738C3.81292 14.2985 3.8508 14.2296 3.90849 14.1799C3.96617 14.1301 4.03982 14.1027 4.116 14.1028H4.86424C4.94848 14.1028 5.02928 14.1362 5.08885 14.1958C5.14842 14.2554 5.18188 14.3362 5.18188 14.4204C5.18188 14.5046 5.14842 14.5854 5.08885 14.645C5.02928 14.7046 4.94848 14.738 4.86424 14.738H4.38995L4.12172 16.5466H6.04151L6.23379 15.2498L5.49522 15.9882C5.46573 16.0177 5.43071 16.0411 5.39217 16.0571C5.35363 16.0731 5.31233 16.0813 5.27061 16.0813C5.2289 16.0813 5.18759 16.0731 5.14905 16.0571C5.11051 16.0411 5.0755 16.0177 5.046 15.9882L4.83191 15.7741C4.77322 15.7155 4.7398 15.6362 4.73881 15.5532C4.73782 15.4703 4.76934 15.3902 4.82661 15.3302C4.88389 15.2701 4.96238 15.2349 5.0453 15.232C5.12822 15.2291 5.20899 15.2587 5.27033 15.3146L6.83929 13.7459C6.8991 13.6875 6.97951 13.6551 7.06309 13.6556C7.14667 13.6561 7.22669 13.6895 7.2858 13.7486C7.3449 13.8077 7.37834 13.8877 7.37884 13.9713C7.37935 14.0549 7.3469 14.1353 7.28852 14.1951V14.1953ZM7.65762 10.0354L7.2953 12.4792C7.28412 12.5546 7.24625 12.6234 7.18858 12.6731C7.13091 12.7229 7.05728 12.7503 6.98111 12.7503H4.41918C4.37352 12.7503 4.3284 12.7404 4.28689 12.7214C4.24538 12.7024 4.20846 12.6747 4.17865 12.6401C4.14883 12.6055 4.12681 12.5649 4.1141 12.5211C4.10139 12.4772 4.09828 12.4311 4.10499 12.386L4.46732 9.94214C4.47838 9.8667 4.51621 9.79777 4.57389 9.74791C4.63157 9.69806 4.70527 9.67061 4.78151 9.67059H7.34344C7.38909 9.67059 7.43421 9.68043 7.47572 9.69945C7.51723 9.71846 7.55415 9.74621 7.58397 9.78078C7.61379 9.81535 7.6358 9.85595 7.64851 9.8998C7.66122 9.94366 7.66433 9.98973 7.65762 10.0349V10.0354ZM11.9127 14.4496L11.5504 16.8932C11.5392 16.9685 11.5013 17.0373 11.4436 17.0871C11.386 17.1369 11.3123 17.1642 11.2362 17.1642H8.67424C8.62859 17.1642 8.58347 17.1544 8.54197 17.1354C8.50047 17.1164 8.46355 17.0886 8.43373 17.0541C8.40392 17.0195 8.3819 16.9789 8.36918 16.9351C8.35647 16.8912 8.35335 16.8452 8.36005 16.8L8.72238 14.3562C8.73355 14.2808 8.77142 14.212 8.82909 14.1622C8.88677 14.1125 8.9604 14.0851 9.03657 14.0851H11.5985C11.6441 14.0851 11.6893 14.095 11.7308 14.114C11.7723 14.133 11.8092 14.1607 11.839 14.1953C11.8688 14.2298 11.8908 14.2704 11.9035 14.3143C11.9163 14.3581 11.9194 14.4042 11.9127 14.4493V14.4496ZM12.5782 10.0177L12.2159 12.4616C12.2048 12.5369 12.1669 12.6058 12.1092 12.6555C12.0515 12.7053 11.9779 12.7326 11.9017 12.7326H9.33981C9.29416 12.7326 9.24904 12.7228 9.20753 12.7038C9.16602 12.6848 9.1291 12.657 9.09928 12.6224C9.06946 12.5879 9.04745 12.5473 9.03474 12.5034C9.02203 12.4596 9.01892 12.4135 9.02562 12.3683L9.38824 9.92428C9.39941 9.84894 9.43728 9.78011 9.49495 9.73036C9.55263 9.6806 9.62626 9.65323 9.70243 9.65322H12.264C12.3097 9.65322 12.3548 9.66307 12.3963 9.68208C12.4378 9.7011 12.4747 9.72884 12.5045 9.76342C12.5344 9.79799 12.5564 9.83859 12.5691 9.88244C12.5818 9.92629 12.5849 9.97237 12.5782 10.0175V10.0177ZM16.8332 14.4672L16.4709 16.911C16.4597 16.9864 16.4219 17.0552 16.3642 17.105C16.3065 17.1547 16.2329 17.1821 16.1567 17.1821H13.5949C13.5492 17.1821 13.5041 17.1722 13.4626 17.1532C13.4211 17.1342 13.3842 17.1065 13.3544 17.0719C13.3246 17.0374 13.3025 16.9968 13.2898 16.9529C13.2771 16.9091 13.274 16.863 13.2807 16.8179L13.6429 14.374C13.6541 14.2987 13.692 14.2299 13.7497 14.1801C13.8073 14.1303 13.881 14.103 13.9571 14.103H16.5191C16.5647 14.103 16.6098 14.1128 16.6513 14.1318C16.6928 14.1508 16.7297 14.1786 16.7596 14.2131C16.7894 14.2477 16.8114 14.2883 16.8241 14.3321C16.8368 14.376 16.8399 14.422 16.8332 14.4672ZM17.9243 9.71294L17.4784 10.1589C17.4778 10.166 17.4784 10.173 17.4774 10.1801L17.1365 12.4794C17.1253 12.5547 17.0875 12.6235 17.0298 12.6733C16.9721 12.723 16.8985 12.7504 16.8223 12.7504H14.2604C14.2147 12.7504 14.1696 12.7406 14.1281 12.7216C14.0866 12.7025 14.0497 12.6748 14.0198 12.6402C13.99 12.6057 13.968 12.5651 13.9553 12.5212C13.9426 12.4774 13.9395 12.4313 13.9462 12.3861L14.3085 9.94228C14.3197 9.86694 14.3576 9.79811 14.4152 9.74836C14.4729 9.6986 14.5465 9.67123 14.6227 9.67122H15.4306C15.5148 9.67122 15.5956 9.70469 15.6552 9.76426C15.7148 9.82383 15.7482 9.90462 15.7482 9.98887C15.7482 10.0731 15.7148 10.1539 15.6552 10.2135C15.5956 10.2731 15.5148 10.3065 15.4306 10.3065H14.8967L14.6284 12.1151H16.5481L16.7267 10.9106L16.131 11.5059C16.1015 11.5354 16.0665 11.5588 16.0279 11.5747C15.9894 11.5907 15.9481 11.5989 15.9064 11.5989C15.8646 11.5989 15.8233 11.5907 15.7848 11.5747C15.7463 11.5588 15.7112 11.5354 15.6817 11.5059L15.4871 11.3113C15.43 11.2543 15.3967 11.1778 15.394 11.0972C15.3912 11.0166 15.4192 10.938 15.4723 10.8773C15.5254 10.8166 15.5996 10.7783 15.6798 10.7703C15.76 10.7623 15.8403 10.785 15.9044 10.834L17.475 9.26336C17.5346 9.20378 17.6154 9.1703 17.6996 9.17029C17.7839 9.17028 17.8647 9.20373 17.9243 9.26329C17.9838 9.32285 18.0173 9.40364 18.0173 9.48789C18.0173 9.57214 17.9839 9.65294 17.9243 9.71252V9.71294Z" fill="url(#paint0_linear_112_2256)"/>
<path d="M9.04247 16.5289H10.9621L11.2302 14.7204H9.31057L9.04247 16.5289ZM4.78741 12.1148H6.70706L6.97516 10.3062H5.05551L4.78741 12.1148ZM9.70798 12.0971H11.6277L11.8958 10.2885H9.97614L9.70798 12.0971ZM13.963 16.5466H15.8827L16.1508 14.738H14.2311L13.963 16.5466Z" fill="url(#paint1_linear_112_2256)"/>
<defs>
<linearGradient id="paint0_linear_112_2256" x1="12.0001" y1="3.46649" x2="12.0001" y2="20.5332" gradientUnits="userSpaceOnUse">
<stop stop-color="#5C5C5C"/>
<stop offset="1"/>
</linearGradient>
<linearGradient id="paint1_linear_112_2256" x1="10.4691" y1="10.2885" x2="10.4691" y2="16.5466" gradientUnits="userSpaceOnUse">
<stop stop-color="#5C5C5C"/>
<stop offset="1"/>
</linearGradient>
</defs>
</svg>
