<svg width="28" height="28" viewBox="0 0 28 28" fill="none" xmlns="http://www.w3.org/2000/svg">
<g clip-path="url(#clip0_112_2268)">
<path d="M14 19.5781C15.6309 19.5781 16.9531 18.256 16.9531 16.625C16.9531 14.994 15.6309 13.6719 14 13.6719C12.369 13.6719 11.0469 14.994 11.0469 16.625C11.0469 18.256 12.369 19.5781 14 19.5781Z" fill="url(#paint0_linear_112_2268)"/>
<path d="M22.5312 20.6719C23.981 20.6719 25.1562 19.4966 25.1562 18.0469C25.1562 16.5971 23.981 15.4219 22.5312 15.4219C21.0815 15.4219 19.9062 16.5971 19.9062 18.0469C19.9062 19.4966 21.0815 20.6719 22.5312 20.6719Z" fill="url(#paint1_linear_112_2268)"/>
<path d="M5.46873 20.6719C6.91848 20.6719 8.09373 19.4966 8.09373 18.0469C8.09373 16.5971 6.91848 15.4219 5.46873 15.4219C4.01898 15.4219 2.84373 16.5971 2.84373 18.0469C2.84373 19.4966 4.01898 20.6719 5.46873 20.6719Z" fill="url(#paint2_linear_112_2268)"/>
<path d="M1.17445 28H7.02732C7.07979 27.9995 7.13139 27.9865 7.17784 27.9621C7.22428 27.9377 7.26425 27.9025 7.29441 27.8596C7.32458 27.8167 7.34409 27.7672 7.35132 27.7152C7.35855 27.6632 7.35329 27.6103 7.33598 27.5607C7.29778 27.456 7.27037 27.3476 7.25417 27.2372C7.21085 26.934 7.18892 26.6281 7.18854 26.3218C7.18666 24.9306 7.61407 23.5727 8.41245 22.4335C8.43766 22.3968 8.4552 22.3554 8.46403 22.3118C8.47285 22.2682 8.47278 22.2233 8.46381 22.1797C8.45484 22.1361 8.43716 22.0948 8.41184 22.0583C8.38651 22.0217 8.35405 21.9906 8.31642 21.9669C7.50699 21.4653 6.57824 21.1891 5.62625 21.1668C4.67426 21.1445 3.73362 21.3771 2.90163 21.8403C2.06964 22.3035 1.37653 22.9806 0.893994 23.8015C0.411462 24.6225 0.157038 25.5574 0.157043 26.5097C0.157245 26.7202 0.170541 26.9305 0.196856 27.1394C0.227466 27.3772 0.343566 27.5956 0.523469 27.754C0.703372 27.9123 0.934773 27.9998 1.17445 28ZM19.6923 21.982C19.655 22.0058 19.6228 22.0369 19.5977 22.0733C19.5726 22.1098 19.5551 22.151 19.5463 22.1944C19.5374 22.2378 19.5374 22.2825 19.5462 22.3259C19.5549 22.3693 19.5723 22.4105 19.5974 22.447C20.3895 23.5837 20.8134 24.9363 20.8116 26.3218C20.8113 26.6279 20.7894 26.9337 20.746 27.2368C20.7299 27.3472 20.7024 27.4557 20.664 27.5605C20.6467 27.6101 20.6414 27.663 20.6487 27.715C20.6559 27.767 20.6754 27.8165 20.7056 27.8595C20.7357 27.9024 20.7757 27.9376 20.8221 27.962C20.8686 27.9864 20.9202 27.9995 20.9726 28H26.857C27.0968 27.9999 27.3283 27.9125 27.5083 27.7542C27.6883 27.5958 27.8045 27.3772 27.835 27.1394C27.8616 26.9306 27.8749 26.7202 27.8751 26.5097C27.8754 25.5549 27.6198 24.6175 27.135 23.7949C26.6503 22.9724 25.954 22.2948 25.1186 21.8325C24.2832 21.3703 23.3392 21.1403 22.3848 21.1665C21.4304 21.1927 20.5004 21.4741 19.6916 21.9815L19.6923 21.982Z" fill="url(#paint3_linear_112_2268)"/>
<path d="M7.84479 26.3218C7.84518 26.597 7.86492 26.872 7.90386 27.1445C7.93741 27.3804 8.0545 27.5966 8.23384 27.7535C8.41319 27.9105 8.64289 27.998 8.88123 28H19.1187C19.357 27.9979 19.5866 27.9104 19.7658 27.7534C19.9451 27.5964 20.0621 27.3804 20.0957 27.1445C20.1346 26.872 20.1545 26.597 20.1549 26.3218C20.1598 25.5103 20.0041 24.706 19.697 23.9549C19.3898 23.2039 18.9372 22.521 18.3651 21.9455C17.7931 21.37 17.1129 20.9134 16.3637 20.6017C15.6145 20.2901 14.8111 20.1297 13.9997 20.1297C13.1882 20.1297 12.3848 20.2901 11.6356 20.6017C10.8864 20.9134 10.2062 21.37 9.63417 21.9455C9.06212 22.521 8.60949 23.2039 8.30232 23.9549C7.99516 24.706 7.83996 25.5103 7.84479 26.3218ZM21.2953 6.31094C21.2953 8.60563 19.8428 10.7472 17.4081 12.04C17.3437 12.0762 17.2933 12.1329 17.265 12.2012C17.2367 12.2694 17.2322 12.3452 17.2521 12.4163C17.272 12.4875 17.3153 12.5499 17.3749 12.5935C17.4345 12.6371 17.5071 12.6594 17.5809 12.6569C17.9035 12.6399 18.2248 12.6049 18.5434 12.5519L21.4222 13.3372C22.1832 13.5778 22.9495 12.7087 22.5815 11.9853C22.3982 11.605 22.2792 11.197 22.2294 10.7778C22.6645 10.3797 23.0144 9.89733 23.2576 9.36001C23.5009 8.82269 23.6326 8.24158 23.6447 7.65188C23.6447 6.18406 22.8178 4.795 21.374 3.84125C21.3155 3.80434 21.2468 3.78675 21.1777 3.79096C21.1086 3.79517 21.0426 3.82096 20.9889 3.8647C20.9353 3.90844 20.8967 3.96793 20.8787 4.03476C20.8607 4.10159 20.8641 4.17239 20.8884 4.23719C21.1565 4.89574 21.2946 5.59992 21.2953 6.31094Z" fill="url(#paint4_linear_112_2268)"/>
<path d="M6.14686 10.2288C6.08671 10.7825 5.93208 11.3219 5.68967 11.8234C5.26573 12.684 6.14904 13.6889 7.05467 13.4116L10.7122 12.4141C11.3018 12.5152 11.8989 12.5665 12.4972 12.5672C16.9881 12.5672 20.639 9.76063 20.639 6.31094C20.639 2.86125 16.9881 0.0546875 12.4972 0.0546875C8.00623 0.0546875 4.35529 2.86125 4.35529 6.31094C4.35529 7.73719 4.98967 9.12187 6.14686 10.2288ZM16.4062 5.35938C16.6009 5.35938 16.7912 5.41711 16.9531 5.52527C17.115 5.63344 17.2412 5.78718 17.3157 5.96705C17.3902 6.14692 17.4097 6.34484 17.3717 6.53579C17.3337 6.72674 17.24 6.90214 17.1023 7.03981C16.9646 7.17748 16.7892 7.27123 16.5983 7.30921C16.4073 7.34719 16.2094 7.3277 16.0295 7.25319C15.8497 7.17869 15.6959 7.05252 15.5878 6.89064C15.4796 6.72876 15.4219 6.53844 15.4219 6.34375C15.4219 6.08268 15.5256 5.8323 15.7102 5.64769C15.8948 5.46309 16.1452 5.35938 16.4062 5.35938ZM12.4687 5.35938C12.6634 5.35938 12.8537 5.41711 13.0156 5.52527C13.1775 5.63344 13.3037 5.78718 13.3782 5.96705C13.4527 6.14692 13.4722 6.34484 13.4342 6.53579C13.3962 6.72674 13.3025 6.90214 13.1648 7.03981C13.0271 7.17748 12.8517 7.27123 12.6608 7.30921C12.4698 7.34719 12.2719 7.3277 12.092 7.25319C11.9122 7.17869 11.7584 7.05252 11.6503 6.89064C11.5421 6.72876 11.4844 6.53844 11.4844 6.34375C11.4844 6.08268 11.5881 5.8323 11.7727 5.64769C11.9573 5.46309 12.2077 5.35938 12.4687 5.35938ZM8.53123 5.35938C8.72592 5.35938 8.91624 5.41711 9.07812 5.52527C9.24 5.63344 9.36617 5.78718 9.44067 5.96705C9.51518 6.14692 9.53467 6.34484 9.49669 6.53579C9.45871 6.72674 9.36495 6.90214 9.22729 7.03981C9.08962 7.17748 8.91422 7.27123 8.72327 7.30921C8.53232 7.34719 8.3344 7.3277 8.15453 7.25319C7.97465 7.17869 7.82092 7.05252 7.71275 6.89064C7.60459 6.72876 7.54686 6.53844 7.54686 6.34375C7.54686 6.08268 7.65057 5.8323 7.83517 5.64769C8.01978 5.46309 8.27016 5.35938 8.53123 5.35938Z" fill="url(#paint5_linear_112_2268)"/>
</g>
<defs>
<linearGradient id="paint0_linear_112_2268" x1="14.0161" y1="0.0546875" x2="14.0161" y2="28" gradientUnits="userSpaceOnUse">
<stop stop-color="#5C5C5C"/>
<stop offset="1"/>
</linearGradient>
<linearGradient id="paint1_linear_112_2268" x1="14.0161" y1="0.0546875" x2="14.0161" y2="28" gradientUnits="userSpaceOnUse">
<stop stop-color="#5C5C5C"/>
<stop offset="1"/>
</linearGradient>
<linearGradient id="paint2_linear_112_2268" x1="14.0161" y1="0.0546875" x2="14.0161" y2="28" gradientUnits="userSpaceOnUse">
<stop stop-color="#5C5C5C"/>
<stop offset="1"/>
</linearGradient>
<linearGradient id="paint3_linear_112_2268" x1="14.0161" y1="0.0546875" x2="14.0161" y2="28" gradientUnits="userSpaceOnUse">
<stop stop-color="#5C5C5C"/>
<stop offset="1"/>
</linearGradient>
<linearGradient id="paint4_linear_112_2268" x1="14.0161" y1="0.0546875" x2="14.0161" y2="28" gradientUnits="userSpaceOnUse">
<stop stop-color="#5C5C5C"/>
<stop offset="1"/>
</linearGradient>
<linearGradient id="paint5_linear_112_2268" x1="14.0161" y1="0.0546875" x2="14.0161" y2="28" gradientUnits="userSpaceOnUse">
<stop stop-color="#5C5C5C"/>
<stop offset="1"/>
</linearGradient>
<clipPath id="clip0_112_2268">
<rect width="28" height="28" fill="white"/>
</clipPath>
</defs>
</svg>
