<svg width="24" height="24" viewBox="0 0 24 24" fill="none" xmlns="http://www.w3.org/2000/svg">
<g clip-path="url(#clip0_112_2288)">
<path fill-rule="evenodd" clip-rule="evenodd" d="M4.25871 21.3334C1.51542 21.3334 0 19.7392 0 16.8535V7.14656C0 4.26081 1.51542 2.66669 4.25871 2.66669H19.7811C22.5244 2.66669 24 4.26081 24 7.14656V16.8535C24 19.7392 22.5244 21.3334 19.7811 21.3334H4.25871ZM6.24875 17.2335C4.60278 17.2335 3.26367 15.8249 3.26367 14.0934V9.90664C3.26367 8.17519 4.60278 6.76654 6.24875 6.76654C7.89472 6.76654 9.23382 8.17519 9.23382 9.90664V14.0934C9.23382 15.8249 7.89472 17.2335 6.24875 17.2335ZM6.24875 8.85994C5.70009 8.85994 5.25372 9.32949 5.25372 9.90664V14.0934C5.25372 14.6706 5.70009 15.1401 6.24875 15.1401C6.7974 15.1401 7.24377 14.6706 7.24377 14.0934V9.90664C7.24377 9.32949 6.7974 8.85994 6.24875 8.85994ZM13.0149 9.90664C13.0149 10.4847 12.5694 10.9533 12.0199 10.9533C11.4704 10.9533 11.0249 10.4847 11.0249 9.90664C11.0249 9.32856 11.4704 8.85994 12.0199 8.85994C12.5694 8.85994 13.0149 9.32856 13.0149 9.90664ZM13.0149 14.0934C13.0149 14.6715 12.5694 15.1401 12.0199 15.1401C11.4704 15.1401 11.0249 14.6715 11.0249 14.0934C11.0249 13.5154 11.4704 13.0467 12.0199 13.0467C12.5694 13.0467 13.0149 13.5154 13.0149 14.0934ZM14.806 14.0934C14.806 15.8249 16.1451 17.2335 17.791 17.2335C19.437 17.2335 20.7761 15.8249 20.7761 14.0934V9.90664C20.7761 8.17519 19.437 6.76654 17.791 6.76654C16.1451 6.76654 14.806 8.17519 14.806 9.90664V14.0934ZM16.796 9.90664C16.796 9.32949 17.2424 8.85994 17.791 8.85994C18.3397 8.85994 18.7861 9.32949 18.7861 9.90664V14.0934C18.7861 14.6706 18.3397 15.1401 17.791 15.1401C17.2424 15.1401 16.796 14.6706 16.796 14.0934V9.90664Z" fill="url(#paint0_linear_112_2288)"/>
</g>
<defs>
<linearGradient id="paint0_linear_112_2288" x1="12" y1="2.66669" x2="12" y2="21.3334" gradientUnits="userSpaceOnUse">
<stop stop-color="#5C5C5C"/>
<stop offset="1"/>
</linearGradient>
<clipPath id="clip0_112_2288">
<rect width="24" height="24" fill="white"/>
</clipPath>
</defs>
</svg>
